<svg xmlns:inkscape="http://www.inkscape.org/namespaces/inkscape" xmlns:sodipodi="http://sodipodi.sourceforge.net/DTD/sodipodi-0.dtd" xmlns="http://www.w3.org/2000/svg" xmlns:svg="http://www.w3.org/2000/svg" version="1.1" style="shape-rendering:geometricPrecision; text-rendering:geometricPrecision; image-rendering:optimizeQuality; fill-rule:evenodd; clip-rule:evenodd" id="svg42" sodipodi:docname="svarog.svg" inkscape:export-filename="svarog.svg" inkscape:export-xdpi="96" inkscape:export-ydpi="96" inkscape:version="1.2 (dc2aedaf03, 2022-05-15)" viewBox="-0.5 93.44 320 52.06">
  <defs id="defs46"/>
  <sodipodi:namedview id="namedview44" pagecolor="#ffffff" bordercolor="#000000" borderopacity="0.25" inkscape:showpageshadow="2" inkscape:pageopacity="0.0" inkscape:pagecheckerboard="0" inkscape:deskcolor="#d1d1d1" showgrid="false" inkscape:zoom="3.3916667" inkscape:cx="156.70762" inkscape:cy="120.14742" inkscape:window-width="1920" inkscape:window-height="1001" inkscape:window-x="-9" inkscape:window-y="-9" inkscape:window-maximized="1" inkscape:current-layer="svg42"/>
  <g id="g4">
    <path style="opacity:0.791" fill="#eb6706" d="M 21.5,93.5 C 23.1992,93.3398 24.8659,93.5065 26.5,94C 40.9896,101.078 55.323,108.411 69.5,116C 50.7703,112.988 32.1036,109.321 13.5,105C 12.5494,104.282 12.3828,103.449 13,102.5C 16.0379,99.6306 18.8712,96.6306 21.5,93.5 Z" id="path2"/>
  </g>
  <g id="g8">
    <path style="opacity:1" fill="#fefffe" d="M 84.5,100.5 C 93.8393,100.334 103.173,100.5 112.5,101C 115.415,105.48 116.081,110.314 114.5,115.5C 106.491,118.164 104.158,115.998 107.5,109C 101.584,108.193 95.7504,108.359 90,109.5C 88.0573,116.122 87.5573,122.789 88.5,129.5C 93.456,130.494 98.456,130.827 103.5,130.5C 103.575,127.794 103.908,125.127 104.5,122.5C 107.5,122.5 110.5,122.5 113.5,122.5C 112.852,127.933 111.519,133.099 109.5,138C 100.5,138.667 91.5,138.667 82.5,138C 80.295,134.013 78.9616,129.679 78.5,125C 79.5045,118.14 80.6712,111.306 82,104.5C 82.6622,103.016 83.4955,101.683 84.5,100.5 Z" id="path6"/>
  </g>
  <g id="g12">
    <path style="opacity:1" fill="#fefffe" d="M 124.5,100.5 C 134.506,100.334 144.506,100.5 154.5,101C 156.368,101.899 157.368,103.399 157.5,105.5C 156.88,109.22 156.047,112.886 155,116.5C 153.59,117.787 152.09,118.954 150.5,120C 152.833,121.333 153.833,123.333 153.5,126C 153.293,130.11 152.293,133.943 150.5,137.5C 141.215,138.64 131.881,138.806 122.5,138C 121.692,137.692 121.025,137.192 120.5,136.5C 119.708,133.874 119.041,131.208 118.5,128.5C 119.649,118.925 121.649,109.592 124.5,100.5 Z M 130.5,108.5 C 136.167,108.5 141.833,108.5 147.5,108.5C 145.999,114.185 142.165,116.519 136,115.5C 133.833,115.167 131.667,114.833 129.5,114.5C 130.348,112.591 130.682,110.591 130.5,108.5 Z M 128.5,123.5 C 133.179,123.334 137.845,123.501 142.5,124C 144.229,125.789 144.896,127.956 144.5,130.5C 138.833,130.5 133.167,130.5 127.5,130.5C 127.298,128.05 127.631,125.717 128.5,123.5 Z" id="path10"/>
  </g>
  <g id="g16">
    <path style="opacity:1" fill="#fefffe" d="M 165.5,100.5 C 174.839,100.334 184.173,100.5 193.5,101C 194.308,101.308 194.975,101.808 195.5,102.5C 196.229,104.976 196.896,107.476 197.5,110C 195.454,119.441 193.788,128.941 192.5,138.5C 189.5,138.5 186.5,138.5 183.5,138.5C 183.794,134.9 184.46,131.4 185.5,128C 179.584,127.193 173.75,127.359 168,128.5C 167.545,131.854 167.045,135.187 166.5,138.5C 163.428,138.817 160.428,138.484 157.5,137.5C 159.599,125.837 161.766,114.171 164,102.5C 164.717,101.956 165.217,101.289 165.5,100.5 Z M 171.5,108.5 C 177.167,108.5 182.833,108.5 188.5,108.5C 188.277,111.784 187.61,114.951 186.5,118C 180.833,118.667 175.167,118.667 169.5,118C 170.61,114.951 171.277,111.784 171.5,108.5 Z" id="path14"/>
  </g>
  <g id="g20">
    <path style="opacity:1" fill="#fefffe" d="M 206.5,100.5 C 216.506,100.334 226.506,100.5 236.5,101C 238.007,102.473 238.674,104.307 238.5,106.5C 237.883,111.536 237.05,116.536 236,121.5C 235.837,123.676 235.004,125.509 233.5,127C 225.173,127.5 216.84,127.666 208.5,127.5C 208.058,131.154 207.724,134.821 207.5,138.5C 204.5,138.5 201.5,138.5 198.5,138.5C 200.115,127.476 201.948,116.476 204,105.5C 204.366,103.548 205.199,101.882 206.5,100.5 Z M 212.5,108.5 C 218.206,108.171 223.872,108.505 229.5,109.5C 228.833,112.167 228.167,114.833 227.5,117.5C 221.833,118.833 216.167,118.833 210.5,117.5C 211.423,114.553 212.089,111.553 212.5,108.5 Z" id="path18"/>
  </g>
  <g id="g24">
    <path style="opacity:1" fill="#fefffe" d="M 247.5,100.5 C 256.839,100.334 266.173,100.5 275.5,101C 278.161,105.095 278.995,109.595 278,114.5C 277,120.167 276,125.833 275,131.5C 274.767,133.78 273.934,135.78 272.5,137.5C 263.215,138.64 253.881,138.806 244.5,138C 243.692,137.692 243.025,137.192 242.5,136.5C 241.708,133.874 241.041,131.208 240.5,128.5C 242.064,120.513 243.564,112.513 245,104.5C 245.662,103.016 246.496,101.683 247.5,100.5 Z M 253.5,108.5 C 259.176,108.334 264.843,108.501 270.5,109C 268.723,116.056 267.389,123.223 266.5,130.5C 260.833,130.5 255.167,130.5 249.5,130.5C 250.454,123.065 251.788,115.731 253.5,108.5 Z" id="path22"/>
  </g>
  <g id="g28">
    <path style="opacity:1" fill="#fefffe" d="M 319.5,101.5 C 319.5,105.5 319.5,109.5 319.5,113.5C 318.596,114.209 318.263,115.209 318.5,116.5C 315.5,116.5 312.5,116.5 309.5,116.5C 310.092,113.873 310.425,111.206 310.5,108.5C 304.833,108.5 299.167,108.5 293.5,108.5C 292.091,118.545 290.424,128.545 288.5,138.5C 285.428,138.817 282.428,138.484 279.5,137.5C 281.682,125.423 284.182,113.423 287,101.5C 297.803,100.198 308.637,100.198 319.5,101.5 Z" id="path26"/>
  </g>
  <g id="g32">
    <path style="opacity:0.735" fill="#eb6706" d="M -0.5,118.5 C -0.5,117.5 -0.5,116.5 -0.5,115.5C 2.81338,112.522 6.14672,109.522 9.5,106.5C 25.6021,109.859 41.6021,113.526 57.5,117.5C 38.1782,118.5 18.8448,118.833 -0.5,118.5 Z" id="path30"/>
  </g>
  <g id="g36">
    <path style="opacity:0.752" fill="#eb6706" d="M -0.5,120.5 C 18.8448,120.167 38.1782,120.5 57.5,121.5C 41.079,126.151 24.4124,129.318 7.5,131C 4.96376,128.295 2.29709,125.795 -0.5,123.5C -0.5,122.5 -0.5,121.5 -0.5,120.5 Z" id="path34"/>
  </g>
  <g id="g40">
    <path style="opacity:0.78" fill="#eb6706" d="M 64.5,122.5 C 66.1992,122.34 67.8659,122.506 69.5,123C 55.323,130.589 40.9896,137.922 26.5,145C 24.8333,145.667 23.1667,145.667 21.5,145C 17.428,141.79 14.428,137.957 12.5,133.5C 30.1062,130.58 47.4396,126.913 64.5,122.5 Z" id="path38"/>
  </g>
</svg>