<?xml version="1.0" standalone="no"?>
<!DOCTYPE svg PUBLIC "-//W3C//DTD SVG 20010904//EN"
 "http://www.w3.org/TR/2001/REC-SVG-20010904/DTD/svg10.dtd">
<svg version="1.0" xmlns="http://www.w3.org/2000/svg"
 width="1024.000000pt" height="301.000000pt" viewBox="0 0 1024.000000 301.000000"
 preserveAspectRatio="xMidYMid meet">

<g transform="translate(0.000000,301.000000) scale(0.100000,-0.100000)"
fill="#000000" stroke="none">
<path d="M0 1505 l0 -1505 2603 1 c1635 1 2578 5 2537 11 -121 17 -226 83
-272 172 -41 80 -48 151 -48 530 0 210 4 385 11 420 24 140 108 237 240 277
61 18 87 21 202 17 162 -6 227 -27 297 -97 65 -65 81 -116 87 -278 l6 -133
-167 0 -166 0 0 115 c0 63 -5 125 -11 138 -23 50 -91 61 -136 23 l-28 -24 -3
-441 c-2 -378 0 -445 13 -470 16 -33 57 -47 105 -36 50 11 60 45 60 200 l0
135 166 0 167 0 -5 -142 c-4 -117 -9 -154 -28 -202 -44 -115 -142 -183 -292
-205 -39 -5 817 -9 2192 -9 1313 0 2230 4 2195 9 -159 23 -244 85 -301 219
-17 41 -19 78 -22 450 -4 432 0 486 43 571 31 60 102 122 174 151 50 20 73 23
211 22 137 0 162 -3 212 -22 61 -25 127 -82 153 -133 9 -17 23 -59 30 -93 13
-57 13 -45 14 184 l1 245 -162 0 -163 0 -3 579 c-1 324 -6 582 -11 585 -5 4
-45 5 -89 3 l-79 -3 -6 -407 c-6 -434 -12 -495 -59 -589 -29 -58 -96 -117
-156 -138 -26 -9 -80 -19 -119 -22 l-73 -6 0 131 0 130 29 7 c36 8 50 24 63
72 5 21 13 225 16 453 7 398 8 417 29 455 26 50 57 79 108 102 35 16 78 18
358 21 267 3 317 6 317 18 0 12 -394 14 -2962 13 -1630 0 -2952 -4 -2938 -8
68 -21 123 -66 154 -128 14 -28 16 -128 16 -960 l0 -928 -864 -5 -864 -5 -104
-100 c-247 -238 -418 -406 -418 -410 0 -3 506 -5 1125 -5 l1125 0 0 -215 0
-215 -1416 0 c-999 0 -1428 3 -1459 11 -92 23 -166 123 -150 206 16 87 46 120
542 614 528 525 526 524 659 548 37 7 294 11 731 11 l673 0 0 457 0 458 -362
-362 c-400 -399 -409 -406 -524 -407 -78 -1 -144 37 -189 108 l-30 49 -3 314
-3 314 -25 -20 c-14 -11 -434 -425 -932 -919 -499 -494 -1017 -1007 -1152
-1140 l-245 -241 -302 -1 c-167 0 -303 4 -303 8 0 4 80 86 177 181 98 95 421
414 718 710 654 649 1623 1609 1876 1857 176 174 187 183 249 202 l65 21
-1552 0 -1553 1 0 -1505z m5372 1010 c37 -253 68 -471 70 -485 3 -17 6 -20 10
-10 3 8 36 224 73 480 37 256 69 468 72 473 2 4 110 7 239 7 l234 0 0 -684 c0
-542 -3 -685 -13 -689 -21 -8 -261 -7 -275 2 -9 5 -12 139 -14 572 l-3 564
-42 -250 c-24 -137 -65 -385 -93 -550 -28 -165 -55 -310 -60 -322 -9 -22 -14
-23 -137 -23 -71 0 -133 4 -140 8 -6 4 -52 254 -104 569 -52 309 -95 560 -97
559 -6 -7 -10 -216 -11 -674 l-1 -464 -127 4 -128 3 -3 688 -2 687 242 -2 243
-3 67 -460z m2188 360 l0 -105 -115 0 -115 0 -2 -582 -3 -583 -160 0 -160 0
-3 583 -2 582 -260 0 -260 0 0 -150 0 -149 123 -3 122 -3 0 -100 0 -100 -122
-3 -123 -3 0 -224 0 -225 180 0 181 0 -3 -102 -3 -103 -337 -3 -338 -2 0 690
0 690 700 0 700 0 0 -105z m580 96 c0 -4 41 -311 90 -682 50 -370 90 -676 90
-681 0 -4 -72 -8 -160 -8 -157 0 -160 0 -164 23 -5 19 -36 293 -36 310 0 4
-42 7 -94 7 l-93 0 -24 -147 c-33 -214 -15 -194 -169 -192 -126 1 -130 1 -130
22 0 12 17 119 38 237 21 118 74 419 118 667 l79 453 228 0 c125 0 227 -4 227
-9z m1130 -675 c0 -670 0 -684 -20 -689 -29 -7 -274 -9 -293 -1 -16 6 -17 51
-17 585 l0 579 -90 0 -90 0 0 -317 c-1 -546 -17 -651 -114 -748 -60 -60 -117
-84 -223 -92 l-73 -6 0 129 0 129 39 16 c31 14 42 25 51 55 8 26 14 181 19
454 7 448 8 459 64 518 59 63 100 70 450 71 l297 1 0 -684z m-2810 -991 l0
-105 -180 0 -181 0 3 -152 3 -153 123 -3 122 -3 0 -99 0 -99 -122 -3 -123 -3
-3 -223 -2 -222 180 0 180 0 0 -105 0 -105 -340 0 -340 0 0 690 0 690 340 0
340 0 0 -105z m716 78 c85 -22 133 -53 168 -106 40 -62 48 -124 44 -317 -3
-162 -5 -179 -28 -223 -29 -57 -75 -97 -157 -134 -51 -24 -74 -28 -188 -33
l-130 -5 -3 -268 -2 -267 -165 0 -165 0 0 691 0 692 278 -6 c227 -4 290 -8
348 -24z m879 3 c92 -19 124 -32 158 -64 44 -41 66 -94 78 -182 18 -132 -11
-249 -78 -312 -29 -27 -100 -58 -134 -58 -40 0 -16 -16 40 -27 113 -21 153
-73 172 -222 24 -184 -18 -357 -101 -423 -60 -47 -141 -59 -452 -65 l-278 -6
0 693 0 693 263 -6 c161 -4 289 -12 332 -21z m606 -458 c0 -285 4 -475 9 -463
5 11 45 218 90 460 45 242 84 450 87 463 l5 22 224 0 224 0 0 -690 0 -691
-130 3 -130 3 0 542 c0 298 -4 544 -8 547 -7 4 -21 -61 -98 -459 -43 -224
-114 -590 -119 -613 l-5 -22 -208 2 -207 3 -3 675 c-1 371 0 681 3 688 3 9 40
12 135 12 l130 0 1 -482z"/>
<path d="M7866 2710 c-6 -45 -56 -533 -56 -551 0 -5 27 -9 60 -9 57 0 60 1 60
25 0 32 -50 557 -54 570 -2 6 -6 -10 -10 -35z"/>
<path d="M6880 985 l0 -225 50 0 c108 0 123 23 128 199 7 203 -17 251 -124
251 l-54 0 0 -225z"/>
<path d="M7792 1028 l3 -183 40 1 c103 2 126 31 133 164 7 146 -30 200 -136
200 l-42 0 2 -182z"/>
<path d="M7790 434 l0 -217 52 7 c66 9 84 19 105 59 22 43 29 223 11 292 -16
59 -39 75 -115 75 l-53 0 0 -216z"/>
<path d="M3197 3000 c59 -14 121 -58 150 -108 l28 -47 0 -323 c0 -177 2 -322
5 -322 3 0 17 17 31 38 15 20 105 118 200 217 477 498 505 523 596 544 24 6
-166 9 -502 9 -297 0 -526 -3 -508 -8z"/>
<path d="M9771 1206 c-14 -8 -28 -22 -32 -32 -4 -11 -8 -218 -8 -462 l-1 -443
25 -24 c32 -33 84 -33 122 -1 28 24 28 24 31 170 l3 146 165 0 164 0 0 180 0
180 -164 0 -164 0 -4 126 c-3 124 -3 126 -31 150 -31 27 -69 30 -106 10z"/>
<path d="M10228 296 c-3 -24 -17 -69 -31 -100 -51 -110 -141 -164 -317 -190
-14 -2 62 -4 168 -5 l192 -1 0 170 c0 94 -2 170 -4 170 -2 0 -6 -20 -8 -44z"/>
</g>
</svg>
